<?xml version="1.0" ?><svg viewBox="0 0 64 64" xmlns="http://www.w3.org/2000/svg"><g data-name="22 online shop" id="_22_online_shop"><path d="M13.88,42.2,19.71,39H47.63a3.988,3.988,0,0,0,3.49-2.06l8.89-16a3.979,3.979,0,0,0-.29-4.35l-1.14-1.51a4,4,0,0,0-3.21-1.6H50.54a14.761,14.761,0,0,0-2.08-3.31c-.01-.01-.02-.03-.04-.04a15.078,15.078,0,0,0-11.6-5.44h-.04a15.1,15.1,0,0,0-11.59,5.43.265.265,0,0,0-.05.06,14.818,14.818,0,0,0-2.11,3.37l-5.19.01-.3-2.75a4.188,4.188,0,0,0-4.18-3.75H4.48a1,1,0,0,0,0,2h8.88a2.209,2.209,0,0,1,2.2,1.97l2.83,26.41-5.55,3.05a4.209,4.209,0,0,0-1.88,3.5v.42a4.217,4.217,0,0,0,4.21,4.21h.74a6.35,6.35,0,1,0,9.22,0H41.57a6.345,6.345,0,1,0,9.23,0h3.94a1,1,0,0,0,0-2H15.17a2.217,2.217,0,0,1-2.21-2.21v-.42A2.159,2.159,0,0,1,13.88,42.2ZM49.91,18.84H43.87A20.2,20.2,0,0,0,42.66,13a37.855,37.855,0,0,0,4.64-1.05A13.12,13.12,0,0,1,49.91,18.84Zm-8.01,2a18.527,18.527,0,0,1-1.12,5.6,37.726,37.726,0,0,0-7.95,0,18.228,18.228,0,0,1-1.12-5.6Zm-10.17-2a18.285,18.285,0,0,1,1.25-5.58,37.61,37.61,0,0,0,3.82.21,37.61,37.61,0,0,0,3.82-.21,18.09,18.09,0,0,1,1.25,5.58Zm2.54,13.91a13.088,13.088,0,0,1-6.49-3.36,35.488,35.488,0,0,1,3.77-.77A19.066,19.066,0,0,0,34.27,32.75Zm-.61-4.38a36.584,36.584,0,0,1,6.28,0,18.852,18.852,0,0,1-3.14,4.2A19.485,19.485,0,0,1,33.66,28.37Zm8.39.25a35.163,35.163,0,0,1,3.78.77,13.172,13.172,0,0,1-6.49,3.36A19.433,19.433,0,0,0,42.05,28.62Zm.76-1.91a20.641,20.641,0,0,0,1.09-5.87h6.01a13.153,13.153,0,0,1-2.61,6.9A36.9,36.9,0,0,0,42.81,26.71Zm3.02-16.42a37.084,37.084,0,0,1-3.96.81,21.956,21.956,0,0,0-2.61-4.18A13.154,13.154,0,0,1,45.83,10.29ZM36.8,7.12a20.1,20.1,0,0,1,2.96,4.21,36.443,36.443,0,0,1-5.91,0A19.754,19.754,0,0,1,36.8,7.12Zm-2.46-.2a22.469,22.469,0,0,0-2.61,4.18,36.908,36.908,0,0,1-3.95-.81A13.164,13.164,0,0,1,34.34,6.92ZM26.3,11.95A38.277,38.277,0,0,0,30.94,13a20.406,20.406,0,0,0-1.21,5.84H23.7A13.026,13.026,0,0,1,26.3,11.95Zm3.41,8.89a20.3,20.3,0,0,0,1.09,5.87,37.052,37.052,0,0,0-4.5,1.03,13.059,13.059,0,0,1-2.6-6.9ZM18.05,15.56l4.22-.01a15.145,15.145,0,0,0,2.87,13.96c.01.02.03.03.04.05a15.134,15.134,0,0,0,23.31-.08.01.01,0,0,0,.01-.01,15.077,15.077,0,0,0,2.81-13.99h4.06a1.989,1.989,0,0,1,1.61.8l1.14,1.52a1.973,1.973,0,0,1,.15,2.16L49.38,35.97A2.03,2.03,0,0,1,47.63,37H20.35ZM46.18,48.62a4.35,4.35,0,1,1-4.34,4.35A4.353,4.353,0,0,1,46.18,48.62Zm-25.66,0a4.35,4.35,0,1,1-4.35,4.35A4.353,4.353,0,0,1,20.52,48.62Z"/></g></svg>